<svg xmlns="http://www.w3.org/2000/svg" xmlns:xlink="http://www.w3.org/1999/xlink" width="20" height="20" viewBox="0 0 20 20" fill="#fff">
  <defs>
    <clipPath id="clip-icon-360">
      <rect width="20" height="20"/>
    </clipPath>
  </defs>
  <g id="icon-360" clip-path="url(#clip-icon-360)">
    <g id="arrow" transform="translate(0 -38)">
      <path id="Trazado_3" data-name="Trazado 3" d="M67.125,142.25h-2.5a.625.625,0,1,1,0-1.25H66.5v-3.75H64.625a.625.625,0,0,1,0-1.25h2.5a.625.625,0,0,1,.625.625v5A.625.625,0,0,1,67.125,142.25Z" transform="translate(-61.5 -92.25)" />
      <path id="Trazado_4" data-name="Trazado 4" d="M194.5,142.25h-1.25A1.25,1.25,0,0,1,192,141v-3.75a1.25,1.25,0,0,1,1.25-1.25h1.875a.625.625,0,1,1,0,1.25H193.25v1.25h1.25a1.25,1.25,0,0,1,1.25,1.25V141A1.25,1.25,0,0,1,194.5,142.25Zm-1.25-2.5V141h1.25v-1.25Z" transform="translate(-184.5 -92.25)" />
      <path id="Trazado_5" data-name="Trazado 5" d="M322.5,142.25h-1.25A1.25,1.25,0,0,1,320,141v-3.75a1.25,1.25,0,0,1,1.25-1.25h1.25a1.25,1.25,0,0,1,1.25,1.25V141A1.25,1.25,0,0,1,322.5,142.25Zm-1.25-5V141h1.25v-3.75Z" transform="translate(-307.5 -92.25)" />
      <path id="Trazado_6" data-name="Trazado 6" d="M67.125,201.25h-2.5a.625.625,0,1,1,0-1.25h2.5a.625.625,0,1,1,0,1.25Z" transform="translate(-61.5 -153.75)" />
      <path id="Trazado_7" data-name="Trazado 7" d="M10,232.4c-5.607,0-10-2.2-10-5a3.4,3.4,0,0,1,1.49-2.656.626.626,0,1,1,.77.986h0a2.274,2.274,0,0,0-1.01,1.67c0,1.774,3.594,3.75,8.75,3.75a.625.625,0,0,1,0,1.25Z" transform="translate(0 -177.396)" />
      <path id="Trazado_8" data-name="Trazado 8" d="M287.869,232.336a.626.626,0,1,1-.06-1.25c3.954-.379,6.935-1.955,6.935-3.663a2.274,2.274,0,0,0-1.01-1.67.625.625,0,1,1,.77-.985h0a3.4,3.4,0,0,1,1.49,2.655c0,2.431-3.316,4.451-8.065,4.91Z" transform="translate(-275.994 -177.424)" />
      <path id="Trazado_9" data-name="Trazado 9" d="M192.6,348.981a.625.625,0,0,1-.443-1.068l1.434-1.432-1.434-1.432a.626.626,0,1,1,.885-.885l1.875,1.875a.625.625,0,0,1,0,.884h0L193.04,348.8A.625.625,0,0,1,192.6,348.981Z" transform="translate(-184.472 -292.106)" />
      <path id="Trazado_10" data-name="Trazado 10" d="M417.875,43.75a1.875,1.875,0,1,1,1.875-1.875A1.875,1.875,0,0,1,417.875,43.75Zm0-2.5a.625.625,0,1,0,.625.625A.625.625,0,0,0,417.875,41.25Z" transform="translate(-399.75)" />
    </g>
  </g>
</svg>
