<?xml version="1.0" encoding="utf-8"?>
<!-- Generator: Adobe Illustrator 24.3.0, SVG Export Plug-In . SVG Version: 6.00 Build 0)  -->
<svg version="1.1" id="Modo_de_aislamiento" xmlns="http://www.w3.org/2000/svg" xmlns:xlink="http://www.w3.org/1999/xlink"
	 x="0px" y="0px" viewBox="0 0 232.7 76.1" style="enable-background:new 0 0 232.7 76.1;" xml:space="preserve">
<style type="text/css">
	.st0{fill:#FFFFFF;}
</style>
<g>
	<path class="st0" d="M16.1,45.2c0,4.2-2.4,6.3-7.2,6.3H1.8V9c0-4.2,2.4-6.3,7.2-6.3h7.2v42.5H16.1z"/>
	<path class="st0" d="M33.6,35.3v10c0,4.2-2.4,6.3-7.2,6.3h-7.2V2.9h23.4c4,0,7.4,1.6,10.1,4.8c2.7,3.2,4,6.9,3.9,11.3
		s-1.6,8.2-4.5,11.4c-2.9,3.3-6.6,4.9-11.3,4.9H33.6z M33.6,12.6v11.1h4.1c4.1,0,6.1-1.9,6.1-5.6s-2-5.6-6.1-5.6h-4.1V12.6z"/>
	<path class="st0" d="M104,42.8c0,1.7-1.4,3.7-4.2,5.9C97,50.9,91.9,52,84.4,52s-13.7-2.3-18.5-7c-4.9-4.7-7.3-10.8-7.3-18.3
		S61,13,65.8,8.4c4.8-4.7,11-7,18.7-7c7.6,0,12.8,1.1,15.4,3.3c2.7,2.2,4,4.2,4,5.9s-0.6,3.3-1.7,4.7c-1.2,1.4-2.4,2-3.8,2
		s-3.6-0.5-6.6-1.6s-5.3-1.6-6.7-1.6c-8.1,0-12.2,4.2-12.2,12.6S77,39.3,85.1,39.3c1.5,0,3.7-0.5,6.7-1.6s5.2-1.6,6.6-1.6
		s2.7,0.7,3.8,2C103.4,39.5,104,41,104,42.8z"/>
	<path class="st0" d="M146,2.7V9v36.2c0,4.2-2.4,6.3-7.2,6.3s-7.2-2.1-7.2-6.3V32.8h-9.8v12.4c0,4.2-2.4,6.3-7.2,6.3h-7.2v-6.3V9
		V2.7h7.2c4.8,0,7.2,2.1,7.2,6.3v12.2h9.8V9c0-4.2,2.4-6.3,7.2-6.3C138.8,2.7,146,2.7,146,2.7z"/>
	<path class="st0" d="M164,45.2c0,4.2-2.4,6.3-7.2,6.3h-7.2V9c0-4.2,2.4-6.3,7.2-6.3h7.2V45.2z"/>
	<path class="st0" d="M193.2,51.5h-18.4c-4.8,0-7.2-2.1-7.2-6.3V2.7h7.2c4.8,0,7.2,2.1,7.2,6.3v31h15.7v5.7
		C197.6,49.6,196.1,51.5,193.2,51.5z"/>
	<path class="st0" d="M201.3,51.5V2.7h30.1v5.7c0,3.8-1.9,5.7-5.6,5.7h-10.2v7h14.3V27c0,3.9-1.8,5.8-5.6,5.8h-8.8V40h15.8v5.7
		c0,3.8-1.9,5.7-5.6,5.7L201.3,51.5L201.3,51.5z"/>
	<rect x="1.8" y="61.3" class="st0" width="2.1" height="12.5"/>
	<polygon class="st0" points="6.9,73.7 6.9,61.3 8.9,61.3 11.5,68.4 11.5,68.4 11.5,61.3 13.4,61.3 13.4,73.7 11.6,73.7 8.9,65.9 
		8.8,65.9 8.8,73.7 	"/>
	<path class="st0" d="M20.1,64.3c-0.1-1-0.7-1.3-1.2-1.3c-0.7,0-1.1,0.4-1.1,1.2c0,2.1,4.3,3.1,4.3,6.5c0,2.1-1.4,3.2-3.3,3.2
		c-2,0-3.1-1.6-3.2-3.4l2-0.3c0.1,1.3,0.6,1.9,1.3,1.9c0.7,0,1.2-0.4,1.2-1.1c0-2.5-4.3-3.1-4.3-6.7c0-2,1.2-3.1,3.3-3.1
		c1.7,0,2.7,1.3,2.9,3L20.1,64.3z"/>
	<polygon class="st0" points="25.7,63.1 23.7,63.1 23.7,61.3 29.9,61.3 29.9,63.1 27.9,63.1 27.9,73.7 25.7,73.7 	"/>
	<rect x="32.2" y="61.3" class="st0" width="2.1" height="12.5"/>
	<polygon class="st0" points="38.6,63.1 36.5,63.1 36.5,61.3 42.7,61.3 42.7,63.1 40.7,63.1 40.7,73.7 38.6,73.7 	"/>
	<path class="st0" d="M44.7,61.3h2.1v9.4c0,0.9,0.4,1.4,1.1,1.4c0.8,0,1.1-0.4,1.1-1.4v-9.4h2.1v9.3c0,2.1-1.2,3.3-3.2,3.3
		s-3.2-1.2-3.2-3.3C44.7,70.6,44.7,61.3,44.7,61.3z"/>
	<polygon class="st0" points="55.2,63.1 53.2,63.1 53.2,61.3 59.4,61.3 59.4,63.1 57.3,63.1 57.3,73.7 55.2,73.7 	"/>
	<path class="st0" d="M61.4,64.3c0-1.8,1-3.2,3.2-3.2s3.2,1.4,3.2,3.2v6.4c0,1.8-1,3.2-3.2,3.2c-2.2,0-3.2-1.4-3.2-3.2
		C61.4,70.7,61.4,64.3,61.4,64.3z M63.5,70.7c0,0.9,0.3,1.4,1.1,1.4c0.9,0,1.1-0.4,1.1-1.4v-6.3c0-0.9-0.3-1.4-1.1-1.4
		c-0.9,0-1.1,0.4-1.1,1.4V70.7z"/>
	<path class="st0" d="M75.1,73.7V61.3h3c2.6,0,3.8,1,3.8,3.7c0,2.7-1.2,3.7-3.8,3.7h-0.9v5.1L75.1,73.7L75.1,73.7z M77.3,66.9h0.8
		c1.4,0,1.8-0.4,1.8-1.9s-0.4-1.9-1.8-1.9h-0.8V66.9z"/>
	<path class="st0" d="M86.5,73.7h-2.1V61.3h3c2.4,0,3.6,1,3.6,3.7c0,2-0.8,2.8-1.5,3.1l1.8,5.6h-2.2l-1.5-5.2
		c-0.3,0-0.7,0.1-1.1,0.1C86.5,68.6,86.5,73.7,86.5,73.7z M86.5,66.9h0.7c1.1,0,1.6-0.4,1.6-1.9s-0.4-1.9-1.6-1.9h-0.7V66.9z"/>
	<path class="st0" d="M93.7,64.3c0-1.8,1-3.2,3.2-3.2s3.2,1.4,3.2,3.2v6.4c0,1.8-1,3.2-3.2,3.2s-3.2-1.4-3.2-3.2V64.3z M95.8,70.7
		c0,0.9,0.3,1.4,1.1,1.4c0.9,0,1.1-0.4,1.1-1.4v-6.3c0-0.9-0.3-1.4-1.1-1.4c-0.9,0-1.1,0.4-1.1,1.4V70.7z"/>
	<polygon class="st0" points="102.9,73.7 102.9,61.3 108.8,61.3 108.8,63.1 105,63.1 105,66.4 107.9,66.4 107.9,68.2 105,68.2 
		105,73.7 	"/>
	<polygon class="st0" points="111.2,73.7 111.2,61.3 116.9,61.3 116.9,63.1 113.4,63.1 113.4,66.4 116.1,66.4 116.1,68.2 
		113.4,68.2 113.4,71.9 117.1,71.9 117.1,73.7 	"/>
	<path class="st0" d="M123.4,64.3c-0.1-1.1-0.6-1.4-1.1-1.4c-0.7,0-1.1,0.4-1.1,1.2c0,2.1,4.3,3.1,4.3,6.5c0,2.1-1.4,3.2-3.3,3.2
		c-2,0-3.1-1.6-3.2-3.4l2-0.3c0.1,1.3,0.6,1.9,1.3,1.9c0.7,0,1.2-0.4,1.2-1.1c0-2.5-4.3-3.1-4.3-6.7c0-2,1.2-3.1,3.3-3.1
		c1.7,0,2.7,1.3,2.9,3L123.4,64.3z"/>
	<rect x="128.1" y="61.3" class="st0" width="2.1" height="12.5"/>
	<path class="st0" d="M133.3,64.3c0-1.8,1-3.2,3.2-3.2s3.2,1.4,3.2,3.2v6.4c0,1.8-1,3.2-3.2,3.2s-3.2-1.4-3.2-3.2V64.3z M135.4,70.7
		c0,0.9,0.3,1.4,1.1,1.4c0.9,0,1.1-0.4,1.1-1.4v-6.3c0-0.9-0.3-1.4-1.1-1.4s-1.1,0.4-1.1,1.4V70.7z"/>
	<polygon class="st0" points="142.6,73.7 142.6,61.3 144.6,61.3 147.1,68.4 147.2,68.4 147.2,61.3 149.1,61.3 149.1,73.7 
		147.2,73.7 144.5,66 144.5,66 144.5,73.7 	"/>
	<path class="st0" d="M153.1,73.7h-2l2.3-12.5h2.6l2.3,12.5h-2.1l-0.4-2.8h-2.3L153.1,73.7z M153.8,69.1h1.7l-0.8-5.3l0,0
		L153.8,69.1z"/>
	<polygon class="st0" points="160.1,73.7 160.1,61.3 162.2,61.3 162.2,71.9 165.5,71.9 165.5,73.7 	"/>
	<path class="st0" d="M172.1,61.3h3.1c2.2,0,3.3,1.2,3.3,3.8V70c0,2.6-1.2,3.8-3.3,3.8h-3.1V61.3z M174.2,72h0.7
		c1.1,0,1.5-0.4,1.5-1.7v-5.4c0-1.3-0.4-1.7-1.5-1.7h-0.7V72z"/>
	<polygon class="st0" points="181.3,73.7 181.3,61.3 187,61.3 187,63.1 183.4,63.1 183.4,66.4 186.2,66.4 186.2,68.2 183.4,68.2 
		183.4,71.9 187.2,71.9 187.2,73.7 	"/>
	<path class="st0" d="M198.4,65.4v-1c0-1.1-0.5-1.5-1-1.5c-0.8,0-1.1,0.4-1.1,1.4v6.3c0,0.9,0.3,1.4,1.1,1.4s1-0.4,1-1.3v-1.5h2.1
		v1.4c0,1.8-1,3.2-3.1,3.2c-2.2,0-3.2-1.4-3.2-3.2v-6.4c0-1.8,1-3.2,3.2-3.2c2.1,0,3.1,1.6,3.1,3.4v0.9L198.4,65.4L198.4,65.4z"/>
	<polygon class="st0" points="203.4,73.7 203.4,61.3 205.5,61.3 205.5,66.4 207.8,66.4 207.8,61.3 209.9,61.3 209.9,73.7 
		207.8,73.7 207.8,68.2 205.5,68.2 205.5,73.7 	"/>
	<rect x="213" y="61.3" class="st0" width="2.1" height="12.5"/>
	<polygon class="st0" points="218,73.7 218,61.3 220.2,61.3 220.2,71.9 223.5,71.9 223.5,73.7 	"/>
	<polygon class="st0" points="225.5,73.7 225.5,61.3 231.2,61.3 231.2,63.1 227.6,63.1 227.6,66.4 230.4,66.4 230.4,68.2 
		227.6,68.2 227.6,71.9 231.4,71.9 231.4,73.7 	"/>
</g>
</svg>
